<?xml version="1.0" encoding="UTF-8"?> <svg xmlns="http://www.w3.org/2000/svg" viewBox="0 0 230 140"><path fill="#fff" d="M0 0h230v140H0z"></path><g><path fill="#80ba27" d="M55.05 73.07h6.68v6.68h-6.68z"></path><path fill="#80ba27" d="M55.05 63.05h6.68v6.68h-6.68z"></path><path fill="#80ba27" d="M55.05 53.02h6.68v6.68h-6.68z"></path><path fill="#80ba27" d="M55.05 43h6.68v6.68h-6.68z"></path><path fill="#80ba27" d="M45.02 53.02h6.68v6.68h-6.68z"></path><path fill="#80ba27" d="M45.02 43h6.68v6.68h-6.68z"></path><path fill="#80ba27" d="M35 53.02h6.68v6.68H35z"></path><path fill="#80ba27" d="M45.02 73.07h6.68v6.68h-6.68z"></path><path fill="#80ba27" d="M45.02 63.05h6.68v6.68h-6.68z"></path><path fill="#80ba27" d="M35 73.07h6.68v6.68H35z"></path><path fill="#80ba27" d="M35 63.05h6.68v6.68H35z"></path><path fill="#80ba27" d="M105.89 49.68v30.08h-7.45V49.68h-9.98V43h27.4v6.68Z"></path><path fill="#80ba27" d="M144.6 79.76V64.4h-12.93v15.36h-7.45V43h7.45v14.8h12.93V43h7.45v36.76Z"></path><path fill="#80ba27" d="M187.54 79.76V58.93l-7.12 14.14h-5.4l-7.16-14.14v20.83h-7.46V43h7.35l9.97 20.65L187.64 43H195v36.76Z"></path><path fill="#4b5c66" d="M195 96.14v-8.02h-.97v5.47l-2.05-5.47h-.9v8.02h.97v-5.47l2.08 5.47Zm-5.36 0v-.87h-2.13v-2.73h1.82v-.86h-1.82V89h2.12v-.87h-3.1v8.02Zm-4.55-2.15c0-1.26-.22-1.82-1.12-2.19l-.9-.36c-.65-.27-.77-.51-.77-1.3a1.42 1.42 0 0 1 .28-.96.82.82 0 0 1 .63-.25.79.79 0 0 1 .65.27 1.42 1.42 0 0 1 .25.97h.96a2.12 2.12 0 0 0-.53-1.64 1.85 1.85 0 0 0-1.33-.46 1.82 1.82 0 0 0-1.27.46 2.16 2.16 0 0 0-.6 1.64c0 1.22.26 1.67 1.09 2l.91.37c.65.27.8.55.8 1.46a1.5 1.5 0 0 1-.27 1.07 1.03 1.03 0 0 1-1.35 0 1.4 1.4 0 0 1-.27-1.05h-.97a2.13 2.13 0 0 0 .5 1.7 1.92 1.92 0 0 0 1.41.48 2 2 0 0 0 1.42-.49 2.34 2.34 0 0 0 .5-1.74m-5.12 0c0-1.27-.22-1.83-1.13-2.2l-.9-.36c-.64-.27-.77-.5-.77-1.3a1.41 1.41 0 0 1 .28-.95.81.81 0 0 1 .62-.25.79.79 0 0 1 .66.27 1.41 1.41 0 0 1 .25.97h.96a2.12 2.12 0 0 0-.53-1.64 1.85 1.85 0 0 0-1.33-.47 1.82 1.82 0 0 0-1.27.47 2.16 2.16 0 0 0-.6 1.64c0 1.22.26 1.67 1.09 2l.9.37c.66.27.8.55.8 1.46a1.5 1.5 0 0 1-.26 1.07 1.03 1.03 0 0 1-1.35 0 1.4 1.4 0 0 1-.27-1.05h-.99a2.13 2.13 0 0 0 .5 1.7 1.92 1.92 0 0 0 1.4.48 2 2 0 0 0 1.43-.49 2.34 2.34 0 0 0 .5-1.75m-5.05 2.16v-.83h-2.13v-2.73h1.82v-.86h-1.82V89h2.13v-.87h-3.1v8.02Zm-4.74 0v-8.03h-.96v3.5h-1.78v-3.5h-.96v8.02h.96v-3.64h1.78v3.64Zm-5.05 0v-.83H163v-7.15h-.99v8.02Zm-4.54 0v-.83h-2.13v-2.73h1.82v-.86h-1.82V89h2.13v-.87h-3.1v8.02Zm-4.43-7.1v-.87h-3.64V89h1.35v7.15h.97V89Zm-4.74 0v-.87h-3.64V89h1.33v7.15h.97V89Zm-4.99-.87h-.96v8.02h.96Zm-2.57 8.02v-8.02h-.92l-1.63 4.46-1.65-4.47h-.9v8.02h.96v-5.62l1.25 3.65h.6l1.27-3.75v5.7Zm-9 0v-.88h-2.16v-2.73h1.82v-.86h-1.82V89h2.13v-.87h-3.1v8.02Zm-4.43 0v-.88h-2.16V88.1h-.96v8.03Zm-4.71-1.82v-6.2h-1v6.25a.89.89 0 1 1-1.78 0v-6.27h-.96v6.2a1.9 1.9 0 0 0 .52 1.39 1.82 1.82 0 0 0 1.32.53 1.86 1.86 0 0 0 1.34-.53 1.9 1.9 0 0 0 .52-1.39m-5.32 1.83V88.1h-.96v3.5h-1.78v-3.5h-.97v8.03h.97v-3.65h1.78v3.65Zm-5.08-1.99h-.95a1.65 1.65 0 0 1-.26.93.77.77 0 0 1-.63.28.79.79 0 0 1-.67-.3c-.28-.38-.32-1.03-.32-2.92s.04-2.55.32-2.92a.79.79 0 0 1 .67-.3.77.77 0 0 1 .63.29 1.52 1.52 0 0 1 .26.9h.96a2.25 2.25 0 0 0-.57-1.58 1.93 1.93 0 0 0-2.65.11c-.53.61-.59 1.3-.59 3.52s.06 2.91.59 3.51a1.73 1.73 0 0 0 1.37.58 1.76 1.76 0 0 0 1.24-.43 2.24 2.24 0 0 0 .61-1.64m-5.03-.17c0-1.26-.22-1.82-1.13-2.18l-.9-.37c-.64-.27-.77-.5-.77-1.3a1.4 1.4 0 0 1 .28-.95.81.81 0 0 1 .62-.25.8.8 0 0 1 .66.27 1.42 1.42 0 0 1 .25.97h.96a2.12 2.12 0 0 0-.52-1.65 1.85 1.85 0 0 0-1.34-.46 1.82 1.82 0 0 0-1.27.46 2.16 2.16 0 0 0-.6 1.65c0 1.22.26 1.67 1.09 2l.9.37c.66.27.8.55.8 1.46a1.48 1.48 0 0 1-.26 1.07 1.03 1.03 0 0 1-1.36 0 1.4 1.4 0 0 1-.27-1.05h-.96a2.13 2.13 0 0 0 .5 1.69 1.92 1.92 0 0 0 1.4.48 2 2 0 0 0 1.43-.48 2.34 2.34 0 0 0 .5-1.75m-5.24 2.15v-8.02h-.98v3.5h-1.8v-3.5h-.96v8.02h.97V92.5h1.78v3.65Zm-5.14-1.98h-.95a1.66 1.66 0 0 1-.26.92.77.77 0 0 1-.63.28.79.79 0 0 1-.67-.3c-.28-.38-.32-1.02-.32-2.91s.04-2.56.32-2.92a.79.79 0 0 1 .67-.3.77.77 0 0 1 .63.28 1.52 1.52 0 0 1 .26.91h.95a2.24 2.24 0 0 0-.57-1.59 1.93 1.93 0 0 0-2.65.12c-.52.6-.58 1.29-.58 3.51s.06 2.92.58 3.52a1.73 1.73 0 0 0 1.38.58 1.76 1.76 0 0 0 1.24-.44 2.24 2.24 0 0 0 .6-1.63m-6.16-2.06c0 1.9-.05 2.56-.34 2.92a.76.76 0 0 1-.65.3.79.79 0 0 1-.66-.3c-.28-.38-.33-1.02-.33-2.92s.05-2.55.33-2.91a.79.79 0 0 1 .66-.3.76.76 0 0 1 .65.3c.29.38.34 1.02.34 2.91m.97 0c0-2.22-.07-2.94-.58-3.51a1.9 1.9 0 0 0-2.75 0c-.52.57-.6 1.3-.6 3.51s.08 2.94.6 3.52a1.9 1.9 0 0 0 2.75 0c.51-.58.58-1.3.58-3.52m-5.39 4.02v-8.03h-.96v3.5h-1.8v-3.5h-.97v8.02h.97V92.5h1.78v3.65Zm-7.65 0v-.87H79.5v-2.73h1.82v-.86H79.5V89h2.13v-.87h-3.1v8.02Zm-4.74 0v-8.03h-.97v3.5h-1.8v-3.5h-.97v8.02h.97V92.5h1.78v3.65Zm-5.08-1.99h-.96a1.66 1.66 0 0 1-.26.93.77.77 0 0 1-.63.28.79.79 0 0 1-.66-.3c-.28-.38-.33-1.03-.33-2.92s.04-2.55.33-2.92a.79.79 0 0 1 .66-.3.77.77 0 0 1 .63.29 1.53 1.53 0 0 1 .26.9h.96a2.24 2.24 0 0 0-.58-1.58 1.93 1.93 0 0 0-2.64.11c-.53.6-.59 1.3-.59 3.52s.06 2.91.59 3.51a1.73 1.73 0 0 0 1.37.58 1.77 1.77 0 0 0 1.24-.43 2.24 2.24 0 0 0 .61-1.64m-5.03-.17c0-1.26-.22-1.82-1.13-2.18l-.9-.37c-.64-.27-.77-.5-.77-1.3a1.4 1.4 0 0 1 .28-.95.81.81 0 0 1 .62-.25.8.8 0 0 1 .66.27 1.42 1.42 0 0 1 .24.97h.94a2.12 2.12 0 0 0-.53-1.65 1.84 1.84 0 0 0-1.33-.46 1.82 1.82 0 0 0-1.27.46 2.16 2.16 0 0 0-.61 1.65c0 1.22.27 1.67 1.1 2l.9.37c.66.27.8.55.8 1.46a1.48 1.48 0 0 1-.26 1.07 1.03 1.03 0 0 1-1.36 0 1.4 1.4 0 0 1-.27-1.05h-.95a2.13 2.13 0 0 0 .5 1.69 1.92 1.92 0 0 0 1.4.48 2 2 0 0 0 1.42-.48 2.34 2.34 0 0 0 .5-1.75m-5.24-5.87h-.97v8.02h.97Zm-2.75 8.02v-8.02h-.99v5.47l-2.05-5.47h-.9v8.02h.97v-5.47l2.07 5.47Zm-5.57 0v-8.02h-.97v3.5h-1.8v-3.5h-.97v8.02h.97V92.5h1.78v3.65Zm-5.14-1.98h-.98a1.66 1.66 0 0 1-.26.92.77.77 0 0 1-.63.29.79.79 0 0 1-.66-.3c-.28-.39-.33-1.03-.33-2.92s.04-2.55.33-2.92a.79.79 0 0 1 .66-.3.77.77 0 0 1 .63.28 1.53 1.53 0 0 1 .26.91h.96a2.24 2.24 0 0 0-.58-1.59 1.93 1.93 0 0 0-2.64.12c-.53.6-.59 1.3-.59 3.51s.06 2.92.59 3.52a1.73 1.73 0 0 0 1.37.58 1.77 1.77 0 0 0 1.24-.44 2.24 2.24 0 0 0 .6-1.63m-4.98 1.98v-.9h-2.13v-2.72h1.82v-.87h-1.82v-2.68h2.13v-.87h-3.1v8.03Zm-4.42-7.17v-.86h-3.65V89h1.35v7.16h.95V89Z"></path><path fill="#4b5c66" d="M74.66 43h.9v36.75h-.9z"></path></g></svg> 