<?xml version="1.0" encoding="UTF-8"?>
<svg xmlns="http://www.w3.org/2000/svg" xmlns:xlink="http://www.w3.org/1999/xlink" id="Ebene_1" data-name="Ebene 1" viewBox="0 0 280 206">
  <defs>
    <style>.cls-1{fill:none;}.cls-2{fill:#fff;}.cls-3{clip-path:url(#clip-path);}.cls-4{fill:#3a4a54;}.cls-5{fill:#7dad14;}.cls-6{fill:#80ba24;}</style>
    <clipPath id="clip-path" transform="translate(0 0)">
      <rect class="cls-1" x="40" y="32" width="200" height="93.68"></rect>
    </clipPath>
  </defs>
  <rect class="cls-2" width="280" height="166"></rect>
  <g class="cls-3">
    <path class="cls-4" d="M49.31,73c-3.87,0-6.8-.83-9.31-3.37l3.22-3.22a8.35,8.35,0,0,0,6.16,2.14c2.94,0,4.52-1.11,4.52-3.15a2.86,2.86,0,0,0-.79-2.15,3.83,3.83,0,0,0-2.26-.9l-3.08-.43a8.63,8.63,0,0,1-4.94-2.11,6.78,6.78,0,0,1-1.83-5c0-4.55,3.37-7.73,8.89-7.73,3.51,0,6,.86,8.23,3L55,53.15a7.09,7.09,0,0,0-5.23-1.75c-2.65,0-3.94,1.47-3.94,3.22a2.51,2.51,0,0,0,.75,1.83,4.41,4.41,0,0,0,2.37,1l3,.43a8.41,8.41,0,0,1,4.87,2,7.14,7.14,0,0,1,2,5.41c0,4.94-4.12,7.74-9.46,7.74" transform="translate(0 0)"></path>
    <path class="cls-4" d="M73.2,51.72V72.78h-5V51.72H61.56V47.28h18.3v4.44Z" transform="translate(0 0)"></path>
    <path class="cls-4" d="M92.9,73c-5.23,0-9.38-3.55-9.38-9V47.28h5V63.86c0,2.94,1.71,4.7,4.4,4.7s4.44-1.76,4.44-4.7V47.28h4.94V64c0,5.41-4.15,9-9.38,9" transform="translate(0 0)"></path>
    <path class="cls-4" d="M123.77,70.35A9.28,9.28,0,0,1,117,72.78h-9.2V47.28H117a9.28,9.28,0,0,1,6.73,2.44c2.87,2.86,2.58,6.37,2.58,10.21s.29,7.55-2.58,10.42m-3.47-17a4.47,4.47,0,0,0-3.73-1.58h-3.76V68.34h3.76a4.44,4.44,0,0,0,3.73-1.58c.93-1.14,1.07-3,1.07-6.84s-.14-5.48-1.07-6.62" transform="translate(0 0)"></path>
    <rect class="cls-4" x="131.44" y="47.28" width="4.98" height="25.5"></rect>
    <path class="cls-4" d="M151.35,73c-5.23,0-9.38-3.55-9.38-9V47.28h5V63.86c0,2.94,1.71,4.7,4.4,4.7s4.44-1.76,4.44-4.7V47.28h4.94V64c0,5.41-4.15,9-9.38,9" transform="translate(0 0)"></path>
    <path class="cls-4" d="M184.41,72.78V57.92l-4.87,9.67h-3.37l-4.91-9.67V72.78h-5V47.28h4.9l6.66,13.79,6.63-13.79h4.91v25.5Z" transform="translate(0 0)"></path>
    <path class="cls-5" d="M141.11,92.35h-4.63v9.06h-4.7V77.34h9.32c5,0,7.94,3.42,7.94,7.5s-3,7.5-7.94,7.5m-.23-10.81h-4.4v6.59h4.4a3.3,3.3,0,0,0,.38-6.59,2.41,2.41,0,0,0-.38,0" transform="translate(0 0)"></path>
    <path class="cls-5" d="M153,101.41V77.34h4.7V97.21h10.92v4.19Z" transform="translate(0 0)"></path>
    <path class="cls-5" d="M180.51,101.61c-4.93,0-8.85-3.35-8.85-8.45V77.34h4.7V93c0,2.77,1.62,4.42,4.15,4.42s4.19-1.65,4.19-4.42V77.34h4.67V93.16c0,5.1-3.92,8.44-8.86,8.44" transform="translate(0 0)"></path>
    <path class="cls-5" d="M201.23,101.61c-3.66,0-6.43-.78-8.79-3.18l3-3a7.86,7.86,0,0,0,5.81,2c2.77,0,4.26-1,4.26-3a2.68,2.68,0,0,0-.74-2,3.64,3.64,0,0,0-2.13-.85l-2.91-.4a8.11,8.11,0,0,1-4.66-2,6.31,6.31,0,0,1-1.72-4.73c0-4.29,3.17-7.3,8.38-7.3,3.31,0,5.71.81,7.77,2.8l-3,3a6.73,6.73,0,0,0-4.94-1.66c-2.5,0-3.71,1.39-3.71,3a2.3,2.3,0,0,0,.71,1.73,4.09,4.09,0,0,0,2.23.94l2.84.41a7.91,7.91,0,0,1,4.6,1.86,6.72,6.72,0,0,1,1.85,5.1c0,4.66-3.88,7.3-8.92,7.3" transform="translate(0 0)"></path>
    <rect class="cls-4" x="229.81" y="47.29" width="10.19" height="10.2"></rect>
    <rect class="cls-4" x="214.51" y="32" width="10.19" height="10.2"></rect>
    <rect class="cls-4" x="214.51" y="62.59" width="10.19" height="10.2"></rect>
    <rect class="cls-5" x="214.51" y="47.29" width="10.19" height="10.2"></rect>
    <rect class="cls-4" x="199.21" y="47.29" width="10.19" height="10.2"></rect>
    <path class="cls-4" d="M45.61,124.71a2.54,2.54,0,0,1-2,.83H40.86V113.69h2.73a2.54,2.54,0,0,1,2,.83c.77.81.85,1.88.85,5.1s-.08,4.28-.85,5.1m-1.06-9.3a1.23,1.23,0,0,0-1-.45H42.29v9.29h1.25a1.23,1.23,0,0,0,1-.45c.45-.55.49-1.46.49-4.2s0-3.64-.49-4.2" transform="translate(0 0)"></path>
    <path class="cls-4" d="M58.91,124.89a2.86,2.86,0,0,1-3.95,0,2.81,2.81,0,0,1-.76-2v-9.17h1.43v9.25a1.32,1.32,0,0,0,2.62.3,1.5,1.5,0,0,0,0-.3v-9.25h1.43v9.17a2.82,2.82,0,0,1-.77,2" transform="translate(0 0)"></path>
    <path class="cls-4" d="M72.09,125.54l-.57-2.8H68.77l-.56,2.8h-1.5l2.76-11.85h1.38l2.75,11.85ZM70.15,116,69,121.46h2.21Z" transform="translate(0 0)"></path>
    <path class="cls-4" d="M80.73,125.54V113.69h1.44v10.57h3.14v1.29Z" transform="translate(0 0)"></path>
    <path class="cls-4" d="M92.73,125.54V113.69h4.58V115H94.16v4h2.71v1.28H94.16v4h3.15v1.28Z" transform="translate(0 0)"></path>
    <path class="cls-4" d="M109.52,124.94a2.9,2.9,0,0,1-2.1.72,2.85,2.85,0,0,1-2.09-.72,3.18,3.18,0,0,1-.73-2.5H106a2.09,2.09,0,0,0,.4,1.55,1.52,1.52,0,0,0,2,0,2.18,2.18,0,0,0,.39-1.58c0-1.37-.2-1.79-1.17-2.19l-1.35-.55c-1.22-.5-1.62-1.16-1.62-3a3.21,3.21,0,0,1,.9-2.43,3,3,0,0,1,3.85,0,3.08,3.08,0,0,1,.78,2.43h-1.43a2.06,2.06,0,0,0-.36-1.43,1.15,1.15,0,0,0-1-.4,1.18,1.18,0,0,0-.92.36,2.12,2.12,0,0,0-.41,1.42c0,1.16.18,1.51,1.13,1.91l1.33.55c1.35.55,1.67,1.38,1.67,3.25a3.39,3.39,0,0,1-.73,2.58" transform="translate(0 0)"></path>
    <path class="cls-4" d="M131.59,124.94a2.9,2.9,0,0,1-2.1.72,2.85,2.85,0,0,1-2.09-.72,3.18,3.18,0,0,1-.73-2.5h1.44a2,2,0,0,0,.4,1.55,1.52,1.52,0,0,0,2,0,2.22,2.22,0,0,0,.38-1.58c0-1.37-.2-1.79-1.17-2.19l-1.35-.55c-1.21-.5-1.61-1.16-1.61-3a3.17,3.17,0,0,1,.9-2.43,2.66,2.66,0,0,1,1.88-.69,2.74,2.74,0,0,1,2,.69,3.12,3.12,0,0,1,.78,2.43h-1.43a2.12,2.12,0,0,0-.37-1.43,1.35,1.35,0,0,0-1.88,0,2.08,2.08,0,0,0-.42,1.42c0,1.16.19,1.51,1.14,1.91l1.33.55c1.35.55,1.66,1.38,1.66,3.25a3.35,3.35,0,0,1-.73,2.58" transform="translate(0 0)"></path>
    <path class="cls-4" d="M142.71,115v10.58h-1.43V115h-2v-1.28h5.42V115Z" transform="translate(0 0)"></path>
    <path class="cls-4" d="M156.71,124.89a2.76,2.76,0,0,1-2,.79,2.72,2.72,0,0,1-2-.79,2.82,2.82,0,0,1-.77-2v-9.17h1.44v9.25a1.31,1.31,0,0,0,2.61.3,1.5,1.5,0,0,0,0-.3v-9.25h1.43v9.17a2.81,2.81,0,0,1-.76,2" transform="translate(0 0)"></path>
    <path class="cls-4" d="M170.25,124.71a2.56,2.56,0,0,1-2,.83h-2.73V113.69h2.73a2.54,2.54,0,0,1,2,.83c.77.81.85,1.88.85,5.1s-.08,4.28-.85,5.1m-1.06-9.3a1.28,1.28,0,0,0-1-.45h-1.25v9.3h1.25a1.25,1.25,0,0,0,1-.45c.45-.55.48-1.47.48-4.2s0-3.65-.48-4.2" transform="translate(0 0)"></path>
    <rect class="cls-4" x="178.93" y="113.69" width="1.43" height="11.86"></rect>
    <path class="cls-4" d="M193.1,124.89a2.75,2.75,0,0,1-2,.79,2.72,2.72,0,0,1-2-.79,2.82,2.82,0,0,1-.77-2v-9.17h1.43v9.25a1.32,1.32,0,0,0,2.62.3,1.5,1.5,0,0,0,0-.3v-9.25h1.43v9.17a2.82,2.82,0,0,1-.77,2" transform="translate(0 0)"></path>
    <path class="cls-4" d="M207.93,125.54V117.1l-1.88,5.55h-.89l-1.85-5.42v8.31h-1.43V113.69h1.35l2.4,6.6,2.38-6.6h1.35v11.85Z" transform="translate(0 0)"></path>
  </g>
  <rect class="cls-6" y="166" width="280" height="40"></rect>
  <path class="cls-2" d="M16.34,177.15a3.85,3.85,0,0,1,3,1.13,4.36,4.36,0,0,1,.93,3v6.89a4.14,4.14,0,0,1-.93,3,3.88,3.88,0,0,1-3,1.12h-3V177.12h3Zm2.27,10.92v-6.63a3,3,0,0,0-.59-2.08,2.23,2.23,0,0,0-1.75-.62H15V190.8h1.32a2.26,2.26,0,0,0,1.75-.62A3.16,3.16,0,0,0,18.61,188.07Z" transform="translate(0 0)"></path>
  <path class="cls-2" d="M27.45,191.3h0A2.91,2.91,0,0,1,25,192.55c-1.71,0-2.2-1.32-2.2-3,0-2.28.72-3.56,3.16-3.56a14,14,0,0,1,1.52.09v-1.58A1.45,1.45,0,0,0,25.93,183a1.42,1.42,0,0,0-1.48,1.32H22.86a2.9,2.9,0,0,1,3.17-2.9c2.5,0,3,1.85,3,3.23v7.71H27.45Zm0-4.06a10.06,10.06,0,0,0-1.12-.1,1.85,1.85,0,0,0-1.95,2.08c0,1.52.46,1.94,1.39,1.94a2.05,2.05,0,0,0,1.64-2v-1.91Z" transform="translate(0 0)"></path>
  <path class="cls-2" d="M35.92,184.44c-.1-1.22-.79-1.48-1.45-1.48s-1.39.29-1.39,1.38c0,.86.6,1.19,1.29,1.52l1.35.66a2.85,2.85,0,0,1,1.85,2.93,2.9,2.9,0,0,1-3.17,3.1,2.89,2.89,0,0,1-3.16-3.1h1.65c.09,1.15.59,1.58,1.45,1.58a1.41,1.41,0,0,0,1.58-1.58c0-.79-.27-1.22-1.39-1.75L33.22,187a2.7,2.7,0,0,1-1.78-2.83c0-1.45.95-2.77,3.09-2.77a2.78,2.78,0,0,1,3,3H35.92Z" transform="translate(0 0)"></path>
  <path class="cls-2" d="M45.05,177.15h3.3c2.73,0,3.75,1.78,3.75,3.86v1.35a3.47,3.47,0,0,1-3.43,3.73h-2v6.29H45.05Zm1.61,7.55h1.55a2.07,2.07,0,0,0,2.28-2.07v-1.82a2,2,0,0,0-2.24-2.27H46.66v6.16Z" transform="translate(0 0)"></path>
  <path class="cls-2" d="M55.63,181.57v1.68a3.68,3.68,0,0,1,3-1.88v1.82h-.3c-1.18,0-2.7.49-2.7,2.83v6.3H54V181.54h1.62Z" transform="translate(0 0)"></path>
  <path class="cls-2" d="M60,184.47a3.1,3.1,0,0,1,6.2,0v5a3.1,3.1,0,0,1-6.2,0Zm4.59.3c0-1.19-.66-1.75-1.49-1.75s-1.48.56-1.48,1.75v4.45c0,1.12.53,1.75,1.48,1.75s1.49-.6,1.49-1.75Z" transform="translate(0 0)"></path>
  <path class="cls-2" d="M75.08,193.67a3,3,0,0,1-3.23,3.23,2.69,2.69,0,0,1-3-2.9h1.58A1.34,1.34,0,0,0,72,195.32a1.49,1.49,0,0,0,1.55-1.45V191.2a2.94,2.94,0,0,1-2.34,1.25c-1.92,0-2.28-1.45-2.28-2.51v-6c0-1,.36-2.5,2.28-2.5a2.9,2.9,0,0,1,2.34,1.25V181.6h1.61v12.07Zm-1.65-4.81V185c0-.66-.26-2-1.58-2-1.06,0-1.39.86-1.39,1.68v4.52c0,.82.33,1.68,1.39,1.68C73.17,190.87,73.43,189.55,73.43,188.86Z" transform="translate(0 0)"></path>
  <path class="cls-2" d="M79.4,181.57v1.68a3.68,3.68,0,0,1,3-1.88v1.82h-.3c-1.19,0-2.7.49-2.7,2.83v6.3H77.78V181.54H79.4Z" transform="translate(0 0)"></path>
  <path class="cls-2" d="M88.2,191.3h0a2.9,2.9,0,0,1-2.47,1.25c-1.72,0-2.21-1.32-2.21-3,0-2.28.72-3.56,3.16-3.56a13.92,13.92,0,0,1,1.52.09v-1.58A1.45,1.45,0,0,0,86.68,183a1.42,1.42,0,0,0-1.48,1.32H83.62a2.89,2.89,0,0,1,3.16-2.9c2.51,0,3,1.85,3,3.23v7.71H88.2Zm0-4.06a9.86,9.86,0,0,0-1.12-.1,1.85,1.85,0,0,0-2,2.08c0,1.52.46,1.94,1.39,1.94a2.05,2.05,0,0,0,1.65-2v-1.91Z" transform="translate(0 0)"></path>
  <path class="cls-2" d="M94.13,181.57v1.06a2.83,2.83,0,0,1,2.31-1.26,2.23,2.23,0,0,1,2.14,1.26,2.71,2.71,0,0,1,2.34-1.26c1.52,0,2.21,1,2.21,2.54v8.41h-1.61V184.6c0-.92-.4-1.68-1.39-1.68s-1.52.93-1.52,2v7.38H97v-7.71c0-.66-.26-1.68-1.35-1.68s-1.52,1-1.52,2v7.38H92.52V181.47h1.61Z" transform="translate(0 0)"></path>
  <path class="cls-2" d="M107.48,181.57v1.06a2.83,2.83,0,0,1,2.31-1.26,2.23,2.23,0,0,1,2.14,1.26,2.71,2.71,0,0,1,2.34-1.26c1.52,0,2.21,1,2.21,2.54v8.41h-1.61V184.6c0-.92-.4-1.68-1.39-1.68s-1.52.93-1.52,2v7.38h-1.61v-7.71c0-.66-.26-1.68-1.35-1.68s-1.52,1-1.52,2v7.38h-1.61V181.47h1.61Z" transform="translate(0 0)"></path>
  <path class="cls-2" d="M130.49,192.38h-1.62v-1a2.91,2.91,0,0,1-2.34,1.25c-1.91,0-2.27-1.45-2.27-2.5v-6.14c0-1.05.36-2.5,2.27-2.5a2.9,2.9,0,0,1,2.34,1.25v-5.5h1.62ZM128.84,189v-4c0-.66-.26-2-1.58-2-1.06,0-1.38.86-1.38,1.68v4.62c0,.82.32,1.68,1.38,1.68C128.58,191,128.84,189.65,128.84,189Z" transform="translate(0 0)"></path>
  <path class="cls-2" d="M137.61,189.35h1.62v.17a2.83,2.83,0,0,1-3,3,3,3,0,0,1-3.17-3.13v-5a2.88,2.88,0,0,1,3-3,3,3,0,0,1,3.17,3.1v3.09h-4.58v1.72c0,1.15.52,1.65,1.51,1.65a1.3,1.3,0,0,0,1.39-1.49v-.13Zm0-3v-1.87a1.37,1.37,0,0,0-1.45-1.52,1.45,1.45,0,0,0-1.48,1.61v1.75h2.93Z" transform="translate(0 0)"></path>
  <path class="cls-2" d="M143.44,181.57v1.68a3.71,3.71,0,0,1,3-1.88v1.82h-.29a2.49,2.49,0,0,0-2.71,2.83v6.3H141.8V181.54h1.64Z" transform="translate(0 0)"></path>
  <path class="cls-2" d="M159.66,177.15v1.52h-2.83v13.71h-1.62V178.67h-2.8v-1.52Z" transform="translate(0 0)"></path>
  <path class="cls-2" d="M163.32,177.15V184H167v-6.83h1.65v15.23H167v-7h-3.69v7h-1.65V177.15Z" transform="translate(0 0)"></path>
  <path class="cls-2" d="M176.67,177.15h1.65l3.2,9.53h.06l3.07-9.53h1.65v15.23h-1.62V182.07h-.06l-2.71,7.74h-.79l-2.7-7.74h-.07v10.31H176.7V177.15Z" transform="translate(0 0)"></path>
  <path class="cls-2" d="M190.75,177.45V179h-1.62v-1.58Zm-1.62,4.12h1.62v10.78h-1.62Z" transform="translate(0 0)"></path>
  <path class="cls-2" d="M195.36,178.31v3.29h1.52v1.32h-1.52v6.53a1.24,1.24,0,0,0,1.45,1.45H197v1.48h-.5a3.05,3.05,0,0,1-2.21-.66,3.1,3.1,0,0,1-.56-2.07v-6.76h-1.15v-1.32h1.15v-3.29h1.65Z" transform="translate(0 0)"></path>
  <path class="cls-2" d="M200.93,178.31v3.29h1.52v1.32h-1.52v6.53a1.6,1.6,0,0,0,.43,1.19,1.56,1.56,0,0,0,1,.26h.17v1.48h-.5a3,3,0,0,1-2.2-.66,3.05,3.05,0,0,1-.57-2.07v-6.76h-1.15v-1.32h1.15v-3.29h1.65Z" transform="translate(0 0)"></path>
  <path class="cls-2" d="M209,189.35h1.61v.17a2.82,2.82,0,0,1-3,3,3,3,0,0,1-3.16-3.13v-5a2.88,2.88,0,0,1,3-3,3,3,0,0,1,3.16,3.1v3.09H206v1.72c0,1.15.53,1.65,1.52,1.65s1.38-.6,1.38-1.49v-.13Zm.06-3v-1.87a1.37,1.37,0,0,0-1.45-1.52,1.45,1.45,0,0,0-1.48,1.61v1.75H209Z" transform="translate(0 0)"></path>
  <path class="cls-2" d="M214.81,177.15v12.53a1.11,1.11,0,0,0,1.19,1.19h.23v1.51h-.5a2.32,2.32,0,0,1-2.57-2.4V177.15Z" transform="translate(0 0)"></path>
  <path class="cls-2" d="M218.14,177.15h1.61v5.51a2.94,2.94,0,0,1,2.35-1.25c1.91,0,2.27,1.45,2.27,2.5v8.47h-1.62v-7.71c0-.82-.33-1.68-1.38-1.68-1.32,0-1.58,1.32-1.58,2v7.38h-1.62v-15.2Z" transform="translate(0 0)"></path>
  <path class="cls-2" d="M231.49,189.35h1.62v.17a2.83,2.83,0,0,1-3,3,3,3,0,0,1-3.17-3.13v-5a2.88,2.88,0,0,1,3-3,3,3,0,0,1,3.17,3.1v3.09h-4.58v1.72c0,1.15.52,1.65,1.51,1.65a1.3,1.3,0,0,0,1.39-1.49v-.13Zm0-3v-1.87a1.37,1.37,0,0,0-1.45-1.52,1.45,1.45,0,0,0-1.48,1.61v1.75h2.93Z" transform="translate(0 0)"></path>
  <path class="cls-2" d="M239.83,184.44c-.1-1.22-.79-1.48-1.45-1.48s-1.39.29-1.39,1.38c0,.86.6,1.19,1.29,1.52l1.35.66a2.85,2.85,0,0,1,1.85,2.93,3.17,3.17,0,0,1-6.33,0h1.65c.1,1.15.59,1.58,1.45,1.58a1.41,1.41,0,0,0,1.58-1.58c0-.79-.26-1.22-1.38-1.75l-1.32-.66a2.7,2.7,0,0,1-1.78-2.83c0-1.45,1-2.77,3.1-2.77a2.78,2.78,0,0,1,3,3h-1.61Z" transform="translate(0 0)"></path>
  <path class="cls-2" d="M247.91,184.44c-.1-1.22-.8-1.48-1.45-1.48-.8,0-1.39.29-1.39,1.38,0,.86.59,1.19,1.29,1.52l1.35.66a2.85,2.85,0,0,1,1.84,2.93,3.17,3.17,0,0,1-6.33,0h1.65c.1,1.15.6,1.58,1.45,1.58a1.41,1.41,0,0,0,1.59-1.58c0-.79-.27-1.22-1.39-1.75L245.2,187a2.71,2.71,0,0,1-1.78-2.83c0-1.45,1-2.77,3.1-2.77a2.79,2.79,0,0,1,3,3h-1.61Z" transform="translate(0 0)"></path>
  <path class="cls-2" d="M256.28,189.35h1.61v.17a2.82,2.82,0,0,1-3,3,3,3,0,0,1-3.16-3.13v-5a2.88,2.88,0,0,1,3-3,3,3,0,0,1,3.17,3.1v3.09h-4.59v1.72c0,1.15.53,1.65,1.52,1.65a1.3,1.3,0,0,0,1.39-1.49v-.13Zm0-3v-1.87a1.37,1.37,0,0,0-1.45-1.52,1.45,1.45,0,0,0-1.48,1.61v1.75h2.93Z" transform="translate(0 0)"></path>
  <path class="cls-2" d="M260.46,181.57h1.62v1.06a2.89,2.89,0,0,1,2.34-1.26c1.91,0,2.27,1.45,2.27,2.51v8.47h-1.61v-7.71c0-.83-.33-1.68-1.38-1.68-1.32,0-1.59,1.31-1.59,2v7.39H260.5V181.57Z" transform="translate(0 0)"></path>
</svg>
