<?xml version="1.0" encoding="UTF-8"?>
<svg width="118px" height="118px" viewBox="0 0 118 118" version="1.1" xmlns="http://www.w3.org/2000/svg" xmlns:xlink="http://www.w3.org/1999/xlink">
    <!-- Generator: Sketch 52.3 (67297) - http://www.bohemiancoding.com/sketch -->
    <title>close</title>
    <desc>Created with Sketch.</desc>
    <defs>
        <filter x="-17.0%" y="-17.0%" width="134.0%" height="134.0%" filterUnits="objectBoundingBox" id="filter-1">
            <feOffset dx="0" dy="2" in="SourceAlpha" result="shadowOffsetOuter1"></feOffset>
            <feGaussianBlur stdDeviation="2" in="shadowOffsetOuter1" result="shadowBlurOuter1"></feGaussianBlur>
            <feColorMatrix values="0 0 0 0 0   0 0 0 0 0   0 0 0 0 0  0 0 0 0.5 0" type="matrix" in="shadowBlurOuter1" result="shadowMatrixOuter1"></feColorMatrix>
            <feMerge>
                <feMergeNode in="shadowMatrixOuter1"></feMergeNode>
                <feMergeNode in="SourceGraphic"></feMergeNode>
            </feMerge>
        </filter>
    </defs>
    <g id="Page-1" stroke="none" stroke-width="1" fill="none" fill-rule="evenodd">
        <g id="close" filter="url(#filter-1)" transform="translate(9.000000, 7.000000)" stroke="#FFFFFF">
            <path d="M100,50.1345895 C100,57.2678331 98.5185185,64.064603 95.8249158,70.1884253 C94.5454545,73.0820996 92.996633,75.9084791 91.1784512,78.4656797 C89.4949495,80.9555855 87.5420875,83.243607 85.4545455,85.3297443 C82.7609428,88.0888291 79.6632997,90.5114401 76.4309764,92.5302826 C71.7845118,95.4239569 66.6666667,97.577389 61.1447811,98.7886945 L58.7205387,99.2597577 C55.959596,99.730821 53.1313131,100 50.2356902,100 C50.1683502,100 50.1010101,100 49.96633,100 C48.3501684,100 46.7340067,99.9327052 45.1851852,99.7981157 C36.7676768,98.9905787 29.023569,96.1641992 22.3569024,91.7227456 C19.5286195,89.8384926 16.9023569,87.6850606 14.4781145,85.2624495 C12.2558923,83.0417227 10.2356902,80.551817 8.48484848,77.9273217 C6.12794613,74.4279946 4.24242424,70.6594886 2.82828283,66.6218035 C1.01010101,61.4401077 0,55.8546433 0,50 C0,22.4091521 22.3569024,0 50.03367,0 C77.6430976,0.134589502 100,22.5437416 100,50.1345895 Z" id="Path" stroke-width="10" fill="#D7261C"></path>
            <path d="M35.6386953,36.1612036 L65.7922132,66.3147215" id="Path-2" stroke-width="5" fill="#FFFFFF" stroke-linecap="round"></path>
            <path d="M36.0146297,35.9602142 L66.1681476,66.1137321" id="Path-2" stroke-width="5" fill="#FFFFFF" stroke-linecap="round" transform="translate(51.091389, 51.036973) rotate(90.000000) translate(-51.091389, -51.036973) "></path>
        </g>
    </g>
</svg>