<svg xmlns="http://www.w3.org/2000/svg" width="38" height="48" viewBox="0 0 38 48"><defs><style>.a{fill:#fff;}.b{fill:#80ba24;}.c,.d{stroke:none;}.d{fill:#80ba24;}</style></defs><g transform="translate(-6467 -535)"><g class="a" transform="translate(6467 535)"><path class="c" d="M 19.00012397766113 45.87411117553711 C 17.34846687316895 44.18714904785156 13.98226833343506 40.63973617553711 10.65254020690918 36.47452163696289 C 7.951799869537354 33.09613037109375 5.805590152740479 29.98179054260254 4.273499965667725 27.2180004119873 C 2.43314003944397 23.89809989929199 1.5 21.13315963745117 1.5 19 C 1.5 14.32557964324951 3.320319890975952 9.930950164794922 6.625629901885986 6.625629901885986 C 9.930950164794922 3.320319890975952 14.32557964324951 1.5 19 1.5 C 23.67441940307617 1.5 28.06904983520508 3.320319890975952 31.37437057495117 6.625629901885986 C 34.67967987060547 9.930950164794922 36.5 14.32557964324951 36.5 19 C 36.5 21.13590049743652 35.56454086303711 23.90501976013184 33.71958923339844 27.23044967651367 C 32.18434906005859 29.99765968322754 30.03412055969238 33.11573028564453 27.3286304473877 36.49806976318359 C 24.00141334533691 40.65767288208008 20.64760589599609 44.19169998168945 19.00012397766113 45.87411117553711 Z"/><path class="d" d="M 19 3 C 14.72624969482422 3 10.70829010009766 4.664291381835938 7.686290740966797 7.686290740966797 C 4.664291381835938 10.70829010009766 3 14.72624969482422 3 19 C 3 21.05146980285645 4.143970489501953 25.92486953735352 11.80549049377441 35.51451110839844 C 14.49194526672363 38.87705230712891 17.20578575134277 41.83505249023438 19.00037574768066 43.71574401855469 C 20.78445434570312 41.84633255004883 23.47824478149414 38.91035079956055 26.15727043151855 35.56110000610352 C 33.85118865966797 25.94235992431641 35 21.05636978149414 35 19 C 35 14.72624969482422 33.33570861816406 10.70829010009766 30.3137092590332 7.686290740966797 C 27.29170989990234 4.664291381835938 23.27375030517578 3 19 3 M 19 0 C 29.49341011047363 0 38 8.506591796875 38 19 C 38 29.49341011047363 19 48 19 48 C 19 48 0 29.49341011047363 0 19 C 0 8.506591796875 8.506589889526367 0 19 0 Z"/></g><path class="b" d="M14.9,12.905V8.1L8.6,11.519.6,7.151,8.6,2.8l8,4.351v5.754ZM8.6,15.712,3.547,12.993V9.625L8.6,12.379l5.053-2.754v3.368Z" transform="translate(6477.4 544.2)"/></g></svg>