<?xml version="1.0" encoding="utf-8"?>
<svg xmlns="http://www.w3.org/2000/svg" xml:space="preserve" viewBox="0 0 887 753">
  <g fill="none" fill-rule="evenodd">
    <path fill="#FFF" d="M0 0h886.9v753H0z"/>
    <path fill="#EB2234" fill-rule="nonzero" d="m569 154.8-323.9 52.6a56.4 56.4 0 0 0-47.5 64l.3 1.8.3 1.8 55.2 324L690 528l-55.2-324-.3-1.8-.3-1.8a56.3 56.3 0 0 0-65.2-45.6"/>
    <path fill="#FFF" fill-rule="nonzero" d="m303.7 374.7-1.5-9h-.2a16.3 16.3 0 0 1-5.5 8.5 26.6 26.6 0 0 1-4.5 3 20.8 20.8 0 0 1-14.7 1.2 20 20 0 0 1-7.5-4.3 25 25 0 0 1-5.3-7.3 36 36 0 0 1-3.2-19c.3-3.1 1.2-6 2.6-8.6 1.4-2.6 3.3-4.8 5.7-6.5 2.4-1.8 5.4-3 9-3.6a18.9 18.9 0 0 1 14.7 3.6c1.3 1 2.5 2.4 3.3 4h.2l-4.5-27 5.7-1 11 65-5.3 1Zm-34.2-11c1 2.3 2.3 4.3 3.8 6 1.6 1.7 3.4 2.9 5.6 3.8 2.1.9 4.6 1 7.3.6a15.1 15.1 0 0 0 11.7-8.6 26.1 26.1 0 0 0 1.3-14.3c-.4-2.4-1-4.8-2-7.1a19 19 0 0 0-4-6 14.5 14.5 0 0 0-5.9-3.6c-2.3-.8-5-1-8-.5a13 13 0 0 0-6.7 3 15.2 15.2 0 0 0-4 5.4 26.1 26.1 0 0 0-1.3 14.3c.6 2.4 1.3 4.7 2.2 7Zm99.9 0-1.4-8.5h-.2a17 17 0 0 1-5.4 8.4 18.8 18.8 0 0 1-9.2 4c-3 .6-5.6.6-7.8 0a15 15 0 0 1-5.7-2.5c-1.6-1.3-2.8-3-3.8-5.1-1-2.1-1.7-4.5-2.2-7.3l-5-30.5 5.6-1 5.2 30.6c.8 4.2 2.4 7.3 4.6 9.2 2.2 1.9 5.6 2.4 10.2 1.7 2.5-.4 4.5-1.3 6.1-2.7a15.5 15.5 0 0 0 5.2-11.5c.2-2.4 0-4.7-.4-7.1l-4.2-24.7 5.7-1 8 47-5.3 1Zm27.6-45.5a14 14 0 0 1 3.1-5.6c1.5-1.6 3.3-2.8 5.4-3.8a29.8 29.8 0 0 1 13.6-2.7c2.1 0 4.1.5 6 1.3 1.7.8 3.3 2 4.7 3.9 1.4 1.8 2.3 4.3 2.8 7.4l4.2 25c.4 2.3 1.7 3.3 4 2.9.7-.1 1.3-.3 1.8-.7l.8 4.8-1.7.6c-.5 0-1.2.3-1.9.4-1.5.2-2.7.2-3.6 0-.9-.2-1.7-.7-2.3-1.3a6.3 6.3 0 0 1-1.4-2.4l-.8-3.3h-.2c-.8 1.7-1.6 3.2-2.5 4.6a15.5 15.5 0 0 1-7.3 6.2c-1.6.7-3.6 1.3-5.9 1.6-2.2.4-4.3.5-6.3.3s-3.8-.7-5.4-1.6a12 12 0 0 1-4-3.7 14.9 14.9 0 0 1-2.4-6c-.6-3.2-.3-6 1-8 1-2.1 2.7-3.8 5-5.2 2.2-1.4 4.8-2.5 7.8-3.4a512 512 0 0 1 9-2.7l3.1-1c1-.3 1.6-.8 2.1-1.3.5-.6 1-1.3 1.1-2.1.2-.8.2-2 0-3.2a9.7 9.7 0 0 0-1.8-4.6c-.8-1.1-1.9-2-3-2.5-1.3-.5-2.7-.8-4.3-.8-1.5 0-3.2 0-4.9.4-3.6.6-6.5 2-8.5 4-2 2.2-2.8 5.2-2.2 9l-5.7 1c-.2-3 0-5.4.6-7.5Zm31 9.2c-.3.7-.9 1.3-1.9 1.8a630.2 630.2 0 0 1-9.9 3.5c-2.5.8-4.8 1.7-6.8 2.7-2 1-3.6 2.3-4.8 3.8-1.2 1.5-1.5 3.4-1.2 5.7.2 1.5.8 2.7 1.5 3.7.8 1 1.7 1.9 2.8 2.5a9 9 0 0 0 3.7 1.3c1.3.2 2.7.2 4 0a21 21 0 0 0 6.1-2.1 14.8 14.8 0 0 0 7.5-9c.6-2 .7-4.1.3-6.4l-1.3-7.5Zm33.3-46.1 10.9 65.1-5.7 1-11-65.1zm40.2 44.2c1 2 2.2 4 3.8 5.5a18 18 0 0 0 5.6 3.6c2.1.8 4.6 1 7.3.6a14 14 0 0 0 9.3-5 17 17 0 0 0 3.4-9.5l5.7-1a23.2 23.2 0 0 1-4.6 13.5 20.1 20.1 0 0 1-13 6.7c-3.8.6-7 .5-10-.3a20 20 0 0 1-12.5-11.6 35.8 35.8 0 0 1-3.2-18.6c.3-3.1 1.1-6 2.4-8.6a19.4 19.4 0 0 1 15-10.6c3.8-.6 7.1-.4 10 .7a20 20 0 0 1 7.5 4.9c2.1 2.2 3.8 4.8 5 7.9a38 38 0 0 1 2.5 9.5l-36.2 6c.4 2 1.1 4 2 6.3ZM527 303a16.2 16.2 0 0 0-9.2-7.8c-2-.6-4-.8-6.4-.4a14.3 14.3 0 0 0-10 7c-1 1.8-1.7 3.7-2 5.9-.5 2.2-.7 4.3-.6 6.5l30.4-5.1c-.4-2.1-1.2-4.2-2.2-6.1Zm57.8-14.5c-.9-1.2-2-2.1-3.2-2.8-1.3-.7-2.7-1.1-4.2-1.2a18.7 18.7 0 0 0-8.5 1.3 9 9 0 0 0-3.4 2c-1 .8-1.7 1.8-2.2 2.9a7.4 7.4 0 0 0-.4 4c.2 1.3.7 2.3 1.5 3 .8.9 1.7 1.5 2.8 1.9 1.1.4 2.2.8 3.4 1l3.3.4 8 .4c1.6 0 3.3 0 5 .5 1.7.4 3.3 1 4.7 1.8a11.6 11.6 0 0 1 5.8 8.5c.4 2.6.2 4.8-.6 6.8-.9 2-2 3.7-3.7 5a26.3 26.3 0 0 1-12.2 5.2c-5.5 1-10.2.5-14-1.6-4-2-6.6-6-8-11.6l5.6-1c1 3.8 2.8 6.5 5.7 8 3 1.6 6.3 2 10.1 1.4a18.6 18.6 0 0 0 8.2-3.4c1.2-1 2-2 2.7-3.3.6-1.3.8-2.7.5-4.4a6.3 6.3 0 0 0-1.5-3.4 8 8 0 0 0-2.7-2c-1-.5-2.3-.8-3.6-1l-4-.5-7.7-.4c-2-.2-3.8-.4-5.5-.8a15 15 0 0 1-4.5-1.7 9.7 9.7 0 0 1-3.4-3 12.9 12.9 0 0 1-1.3-11.3 12 12 0 0 1 3.5-4.8c1.5-1.3 3.3-2.4 5.3-3.2 2-.8 4.1-1.4 6.1-1.8 2.4-.4 4.6-.5 6.8-.2 2.1.3 4.1.9 6 1.9 1.7 1 3.2 2.4 4.4 4 1.2 1.8 2.1 4 2.7 6.5l-5.7 1c-.3-1.4-.9-3-1.8-4.1ZM301.1 414.3c-.9-1.2-2-2.1-3.2-2.8-1.3-.7-2.7-1.1-4.2-1.2a18.7 18.7 0 0 0-8.5 1.3c-1.3.5-2.4 1.2-3.4 2s-1.7 1.8-2.2 2.9a7.4 7.4 0 0 0-.4 4c.2 1.3.7 2.3 1.5 3 .8.9 1.7 1.5 2.8 1.9 1.1.4 2.2.8 3.4 1l3.4.4 8 .4c1.6 0 3.3 0 5 .5 1.7.4 3.3 1 4.7 1.8a11.6 11.6 0 0 1 5.8 8.5c.4 2.6.2 4.8-.6 6.8-.9 2-2 3.7-3.7 5a26.3 26.3 0 0 1-12.2 5.2c-5.5 1-10.2.5-14-1.6-4-2-6.6-6-8-11.6l5.6-1c1 3.8 2.8 6.5 5.7 8 3 1.6 6.3 2 10.1 1.4a18.6 18.6 0 0 0 8.2-3.4c1.2-1 2-2 2.7-3.3.6-1.3.8-2.7.5-4.4a6.3 6.3 0 0 0-1.5-3.4 8 8 0 0 0-2.7-2c-1-.5-2.3-.8-3.6-1l-4-.5-7.7-.4c-2-.2-3.8-.4-5.5-.8a15 15 0 0 1-4.5-1.7 9.7 9.7 0 0 1-3.4-3A12.9 12.9 0 0 1 274 415a12 12 0 0 1 3.5-4.8c1.5-1.3 3.3-2.4 5.3-3.2 2-.8 4.1-1.4 6.1-1.8 2.4-.4 4.6-.5 6.8-.2 2.1.3 4.1.9 6 1.9 1.7 1 3.2 2.4 4.4 4 1.2 1.8 2.1 4 2.7 6.5l-5.7 1c-.4-1.4-1-3-1.9-4.1Zm37.9-15.8.8 4.8-9.6 1.6 5.3 31.7c.3 1.9.8 3.3 1.5 4.3s2.1 1.4 4.2 1c1.6-.2 3.3-.5 5-1l.7 4.8c-.9 0-1.7.3-2.5.5l-2.5.5c-3.8.6-6.6.3-8.4-1-1.8-1.1-3-3.8-3.6-7.8l-5.4-32.2-8.2 1.4-.8-4.8 8.2-1.4-2.4-14.1 5.7-1 2.4 14 9.6-1.3Zm53 39.5-1.5-8.5h-.2a17 17 0 0 1-5.4 8.4 18.8 18.8 0 0 1-9.2 4c-3 .6-5.6.6-7.8 0-2.2-.4-4-1.2-5.7-2.5-1.6-1.3-2.8-3-3.8-5.1-1-2.1-1.7-4.5-2.2-7.3l-5-30.5 5.6-1L362 426c.8 4.2 2.4 7.3 4.6 9.2 2.2 1.9 5.6 2.4 10.2 1.7 2.5-.4 4.5-1.3 6.1-2.7a15.5 15.5 0 0 0 5.2-11.5c.2-2.4 0-4.7-.4-7.1l-4.2-24.7 5.7-1 8 47-5.3 1Zm56-9.5-1.5-9h-.2a16.3 16.3 0 0 1-5.5 8.5 26.6 26.6 0 0 1-4.5 3 20.8 20.8 0 0 1-14.7 1.2 20 20 0 0 1-7.5-4.3 25 25 0 0 1-5.3-7.3 36 36 0 0 1-3.2-19c.3-3.1 1.2-6 2.6-8.6 1.4-2.6 3.3-4.8 5.7-6.5 2.4-1.8 5.4-3 9-3.6a18.9 18.9 0 0 1 14.7 3.6c1.3 1 2.5 2.4 3.3 4h.2l-4.5-27 5.7-1 11 65-5.3 1Zm-34.2-11c1 2.3 2.3 4.3 3.8 6 1.6 1.7 3.4 2.9 5.6 3.8 2.1.9 4.6 1 7.3.6a15.1 15.1 0 0 0 11.7-8.6 26.1 26.1 0 0 0 1.3-14.3c-.4-2.4-1-4.8-2-7.1a19 19 0 0 0-4-6 14.5 14.5 0 0 0-5.9-3.6c-2.3-.8-5-1-8-.5a13 13 0 0 0-6.7 3 15.2 15.2 0 0 0-4 5.4 26.1 26.1 0 0 0-1.3 14.3c.5 2.4 1.2 4.7 2.2 7ZM463 359l1.5 9.3-5.7 1-1.5-9.2 5.7-1Zm3 18 8 47-5.8 1-7.9-47 5.7-1Zm55.7 39-1.4-8.4h-.2a17 17 0 0 1-5.4 8.4 18.8 18.8 0 0 1-9.2 4c-3 .6-5.6.6-7.8 0-2.2-.4-4-1.2-5.7-2.5-1.6-1.3-2.8-3-3.8-5.1-1-2.1-1.7-4.5-2.2-7.3l-5-30.5 5.6-1 5.2 30.6c.8 4.2 2.4 7.3 4.6 9.2 2.2 1.9 5.6 2.4 10.2 1.7 2.5-.4 4.5-1.3 6.1-2.7a15.5 15.5 0 0 0 5.2-11.5c.2-2.4 0-4.7-.4-7.1l-4.2-24.7 5.7-1 8 47-5.3 1Zm18.5-51.3 1.3 7.9h.3c1-3.2 2.6-5.8 4.8-7.8 2.2-2.1 5.2-3.4 9-4 3.1-.5 6-.2 8.8.9 2.8 1 4.8 3 6.2 6 1-3.2 2.6-6 5-8 2.5-2 5.3-3.1 8.4-3.6 10.4-1.7 16.5 2.9 18.4 13.9l5.4 31.9-5.7 1-5.3-31.6c-.7-4-2-6.7-4-8.5-2-1.8-5-2.3-9.2-1.6-2.5.4-4.5 1.2-6 2.5a10.9 10.9 0 0 0-3.3 4.4c-.7 1.7-1 3.7-1 5.8a28 28 0 0 0 .4 6.4l4.5 26.6-5.7 1-5.4-32c-.3-1.5-.7-3-1.3-4.3-.6-1.4-1.3-2.5-2.3-3.5a8 8 0 0 0-3.5-2 11 11 0 0 0-4.8-.1 14 14 0 0 0-6 2.4 12.4 12.4 0 0 0-3.9 4.4c-.9 1.7-1.4 3.7-1.6 5.9a28 28 0 0 0 .3 7l4.4 26.2-5.7 1-7.9-47 5.4-1.2ZM438.1 482.3l2.7 13.7h.1c.3-1.6 1.1-3 2.4-4.2 1.3-1.2 2.8-2 4.6-2.3a14 14 0 0 1 4.5-.2 7 7 0 0 1 5.3 4.1 18 18 0 0 1 1.2 3.9l3.1 15.9-3 .6-3-15.4c-.2-1.1-.5-2-.9-3a8 8 0 0 0-1.5-2.1c-.6-.6-1.4-1-2.2-1.2a8.5 8.5 0 0 0-6.3 1.3 7 7 0 0 0-2 2.2 9.6 9.6 0 0 0-1 6.5l2.8 14.4-3 .6-6.6-34.2 2.8-.6Zm37.9 19.6a8.6 8.6 0 0 0 5.1 4.7c1.1.4 2.4.5 4 .2a7.2 7.2 0 0 0 4.7-2.7c1-1.4 1.6-3.1 1.7-5.1l3-.6c0 2.9-.9 5.3-2.3 7.2-1.4 1.9-3.7 3-6.8 3.7a10.5 10.5 0 0 1-9.3-2.3 13.4 13.4 0 0 1-2.8-3.8 19 19 0 0 1-1.9-9.8 12 12 0 0 1 1.2-4.6 10 10 0 0 1 3-3.6 11.7 11.7 0 0 1 10-2c1.6.6 3 1.5 4 2.6 1.1 1 2 2.5 2.8 4 .7 1.7 1.2 3.4 1.5 5l-19 3.8c.2 1 .6 2.2 1.1 3.3Zm13.2-12.1c-.6-1-1.3-1.8-2-2.5a7.6 7.6 0 0 0-2.9-1.5 7.8 7.8 0 0 0-8.7 3.7c-.5.9-.9 2-1 3-.3 1.2-.3 2.4-.3 3.5l16-3.1c0-1-.5-2.1-1-3.1Zm29.4-8.2a5.5 5.5 0 0 0-1.7-1.4 7.2 7.2 0 0 0-4.7-.4c-.7 0-1.3.3-2 .6l-1.8 1c-.5.5-.9 1-1 1.7-.3.6-.4 1.3-.2 2 .1.8.4 1.3.8 1.7.4.4 1 .7 1.5.9l1.8.5 1.8.2h4.2c1 0 1.8 0 2.7.3 1 .2 1.7.5 2.5.9s1.4 1 2 1.7c.6.7 1 1.6 1.2 2.7a6.2 6.2 0 0 1-2 6.3 13.3 13.3 0 0 1-6.4 2.9 11 11 0 0 1-7.5-.6c-2-1-3.5-3-4.4-6l3-.6c.5 2 1.6 3.4 3.1 4.2 1.6.8 3.3 1 5.4.6.7-.1 1.5-.4 2.2-.7.8-.3 1.4-.7 2-1.2.6-.5 1.1-1.1 1.4-1.8.3-.7.4-1.4.2-2.3 0-.7-.4-1.3-.8-1.8a4 4 0 0 0-1.5-1l-1.9-.5-2-.2-4-.1-3-.4-2.4-.8a9 9 0 0 1-1.8-1.5c-.5-.6-.8-1.5-1-2.6a6 6 0 0 1 2-6 13.1 13.1 0 0 1 6-2.8c1.2-.2 2.4-.3 3.6-.2a8 8 0 0 1 3.1.9c1 .5 1.8 1.2 2.4 2 .6 1 1.2 2 1.5 3.4l-3 .6-1.3-2.2Zm30.8-6a5.5 5.5 0 0 0-1.7-1.4 7.2 7.2 0 0 0-4.7-.4c-.7 0-1.3.3-2 .6l-1.8 1c-.5.5-.9 1-1 1.7-.3.6-.4 1.3-.2 2 .1.8.4 1.3.8 1.7.4.4 1 .7 1.5.9a12 12 0 0 0 3.6.7h4.2c1 0 1.8 0 2.7.3 1 .2 1.7.5 2.5.9s1.4 1 2 1.7c.6.7 1 1.6 1.2 2.7a6.2 6.2 0 0 1-2 6.3 13.3 13.3 0 0 1-6.4 2.9 11 11 0 0 1-7.5-.6c-2-1-3.5-3-4.4-6l3-.6c.5 2 1.6 3.4 3.1 4.2 1.6.8 3.3 1 5.4.6.7-.1 1.5-.4 2.2-.7.8-.3 1.4-.7 2-1.2.6-.5 1.1-1.1 1.4-1.8.3-.7.4-1.4.2-2.3 0-.7-.4-1.3-.8-1.8a4 4 0 0 0-1.5-1l-1.9-.5-2-.2-4-.1-3-.4a6.5 6.5 0 0 1-4.2-2.3c-.5-.7-.8-1.5-1-2.6a6 6 0 0 1 2-6 13.1 13.1 0 0 1 6-2.8c1.2-.2 2.4-.3 3.6-.2a8 8 0 0 1 3.1.9c1 .5 1.8 1.2 2.4 2 .6 1 1.2 2 1.5 3.4l-3 .6c-.4-.8-.8-1.6-1.3-2.2Zm21.4 8.1a8.6 8.6 0 0 0 5.1 4.7c1.1.4 2.4.5 4 .2a7.2 7.2 0 0 0 4.7-2.7c1-1.4 1.6-3.1 1.7-5.1l3-.6c0 2.9-.9 5.3-2.3 7.2-1.4 1.9-3.7 3-6.8 3.7a10.5 10.5 0 0 1-9.3-2.3c-1-1-2-2.3-2.8-3.8a19 19 0 0 1-1.9-9.8 12 12 0 0 1 1.2-4.6 10 10 0 0 1 3-3.6 11.7 11.7 0 0 1 10-2c1.6.6 3 1.5 4 2.6 1.1 1 2 2.5 2.8 4 .7 1.7 1.2 3.4 1.5 5l-19 3.8c.2 1 .5 2.2 1.1 3.3Zm13.1-12.1c-.6-1-1.3-1.8-2-2.5a7.6 7.6 0 0 0-2.9-1.5 7.8 7.8 0 0 0-8.7 3.7c-.5.9-.9 2-1 3-.3 1.2-.3 2.4-.3 3.5l16-3.1a7.2 7.2 0 0 0-1-3.1Zm17.1-10.9.8 4.3h.1c.3-1.6 1.1-3 2.4-4.2 1.3-1.2 2.8-2 4.6-2.3a14 14 0 0 1 4.5-.2 7 7 0 0 1 5.3 4.1 18 18 0 0 1 1.2 3.9l3.1 15.9-3 .6-3-15.4c-.2-1.1-.5-2-.9-3a8 8 0 0 0-1.5-2.1c-.6-.6-1.4-1-2.2-1.2a8.5 8.5 0 0 0-6.3 1.3 7 7 0 0 0-2 2.2 9.6 9.6 0 0 0-1 6.5l2.8 14.4-3 .6-4.8-24.7 3-.7ZM199.5 282.9l411.7-72.4-.7-4.4-411.8 72.3"/>
    <path fill="#FFF" fill-rule="nonzero" d="m610 208.2-2.7 9.2 25.8-12.8-29.9-3.2 6.8 6.8M237.2 504.6l413.5-72.7-.8-4.4-413.5 72.8"/>
    <path fill="#FFF" fill-rule="nonzero" d="m649.4 429.6-2.6 9.2 25.7-12.8-29.9-3.2 6.8 6.8"/>
  </g>
</svg>
